<svg width="558" height="402" viewBox="0 0 558 402" fill="none" xmlns="http://www.w3.org/2000/svg">
<path d="M557.207 401H0.793457L74.3924 1H483.669L557.207 401Z" fill="#052E16" stroke="#696969" stroke-miterlimit="10"/>
<path d="M340.065 170.283C341.423 198.831 314.113 222.926 279.012 222.926C243.911 222.926 216.606 198.831 217.969 170.283C219.27 142.955 246.585 121.637 279.022 121.637C311.458 121.637 338.768 142.95 340.065 170.283Z" fill="#052E16" stroke="#696969" stroke-miterlimit="10"/>
<path d="M43.2859 170.045H514.747Z" fill="#052E16"/>
<path d="M43.2859 170.045H514.747" stroke="#696969" stroke-miterlimit="10"/>
<path d="M334.079 44.4278C335.183 67.6271 310.513 87.1342 278.936 87.1342C247.36 87.1342 222.7 67.632 223.809 44.4278C224.876 22.1243 249.545 4.66165 278.951 4.66165C308.352 4.66165 333.021 22.1243 334.079 44.4278Z" fill="#052E16" stroke="#696969" stroke-miterlimit="10"/>
<path d="M166.191 59.9105H395.028L389.211 1.09451H171.858L166.191 59.9105Z" fill="#052E16" stroke="#696969" stroke-miterlimit="10"/>
<path d="M229.603 34.1643H328.684L327.251 1.08463H231.036L229.603 34.1643Z" fill="#052E16" stroke="#696969" stroke-miterlimit="10"/>
<path d="M212.048 327.528C213.65 293.119 244.32 266.413 280.619 266.413C316.918 266.413 347.644 293.119 349.322 327.528C351.084 363.662 320.423 394.314 280.76 394.314C241.096 394.314 210.366 363.662 212.052 327.528H212.048Z" fill="#052E16" stroke="#696969" stroke-miterlimit="10"/>
<path d="M416.929 304.234H140.365L130.897 400.851H426.332L416.929 304.234Z" fill="#052E16" stroke="#696969" stroke-miterlimit="10"/>
<path d="M343.377 343.757H217.531L215.111 400.876H345.901L343.377 343.757Z" fill="#052E16" stroke="#696969" stroke-miterlimit="10"/>
</svg>
